<?xml version="1.0" encoding="utf-8"?>
<!-- Generator: Adobe Illustrator 25.4.1, SVG Export Plug-In . SVG Version: 6.00 Build 0)  -->
<svg version="1.1" id="Layer_1" xmlns="http://www.w3.org/2000/svg" xmlns:xlink="http://www.w3.org/1999/xlink" x="0px" y="0px"
	 viewBox="0 0 154.4 34.8" style="enable-background:new 0 0 154.4 34.8;" xml:space="preserve">
<style type="text/css">
	.st0{fill:#00BC84;}
	.st1{fill:#FFFFFF;}
	.st2{fill-rule:evenodd;clip-rule:evenodd;fill:#081C32;}
</style>
<path class="st0" d="M34.1,34.8H6.8C3,34.8,0,31.7,0,28V6c0-3.3,2.7-6,6-6h22.7c3.4,0,6.1,2.7,6.1,6.1v28.1
	C34.8,34.5,34.5,34.8,34.1,34.8z"/>
<polygon class="st1" points="8.8,25.9 25.9,25.9 25.9,8.8 17.4,17.4 "/>
<path id="Formax" class="st2" d="M54.6,28v-8.9h8.8v-3.8h-8.8v-5.1h9.7V6.5H50V28H54.6L54.6,28z M77.6,27.3c1.2-0.7,2.1-1.7,2.8-2.9
	c1.3-2.8,1.3-6,0-8.8c-0.6-1.2-1.6-2.2-2.8-2.9c-2.7-1.4-5.8-1.4-8.5,0c-1.2,0.7-2.1,1.7-2.8,2.9c-1.3,2.8-1.3,6,0,8.8
	c0.6,1.2,1.6,2.2,2.8,2.9C71.8,28.7,75,28.7,77.6,27.3L77.6,27.3z M71.5,24.2c-0.5-0.5-0.9-1.1-1.1-1.7c-0.5-1.6-0.5-3.4,0-5
	c0.2-0.7,0.6-1.3,1.1-1.7c0.5-0.4,1.2-0.7,1.9-0.6c0.7,0,1.3,0.2,1.9,0.6c0.5,0.5,0.9,1.1,1.1,1.7c0.5,1.6,0.5,3.4,0,5
	c-0.2,0.7-0.6,1.3-1.1,1.7c-0.5,0.4-1.2,0.7-1.9,0.6C72.7,24.9,72.1,24.7,71.5,24.2L71.5,24.2z M88.8,28v-9.2c0-0.6,0.1-1.2,0.4-1.7
	c0.3-0.5,0.7-0.9,1.2-1.2c0.5-0.3,1.1-0.4,1.8-0.4c0.3,0,0.7,0,1,0.1c0.3,0,0.6,0.1,0.9,0.2v-4c-0.2-0.1-0.5-0.1-0.7-0.1
	c-0.2,0-0.5,0-0.7,0c-0.9,0-1.7,0.3-2.4,0.8c-0.7,0.6-1.3,1.4-1.5,2.3h-0.2v-2.8h-4.3V28L88.8,28L88.8,28z M100.9,28v-9.7
	c0-0.5,0.1-1.1,0.3-1.6c0.2-0.4,0.5-0.8,0.9-1c0.4-0.3,0.9-0.4,1.3-0.4c0.7,0,1.3,0.2,1.8,0.7c0.5,0.5,0.7,1.2,0.7,1.9V28h4.3v-9.9
	c0-0.7,0.2-1.5,0.7-2c0.5-0.5,1.2-0.8,1.9-0.8c0.7,0,1.3,0.2,1.8,0.7c0.5,0.5,0.8,1.3,0.7,2v10h4.5V17.1c0.1-1.5-0.4-3-1.4-4.1
	c-1-1-2.3-1.5-3.7-1.4c-1.1,0-2.2,0.3-3.1,0.8c-0.8,0.5-1.5,1.3-1.8,2.2h-0.2c-0.2-0.9-0.8-1.7-1.6-2.2c-1.7-1.1-3.9-1.1-5.7,0
	c-0.8,0.5-1.4,1.3-1.7,2.2h-0.2v-2.9h-4.3V28L100.9,28L100.9,28z M130.2,28c0.6-0.2,1.1-0.5,1.6-0.9c0.4-0.4,0.8-0.8,1-1.3h0.1V28
	h4.3V17.1c0-0.9-0.2-1.7-0.6-2.5c-0.4-0.7-0.9-1.3-1.5-1.7c-0.7-0.5-1.4-0.8-2.2-1c-0.8-0.2-1.7-0.3-2.6-0.3c-1.2,0-2.3,0.2-3.4,0.6
	c-0.9,0.3-1.7,0.9-2.4,1.7c-0.6,0.7-1.1,1.6-1.2,2.6l4.1,0.3c0.2-0.5,0.5-1,0.9-1.3c0.6-0.4,1.2-0.6,1.9-0.5c0.6,0,1.3,0.2,1.8,0.5
	c0.4,0.4,0.7,1,0.6,1.5v0.1c0,0.3-0.1,0.6-0.4,0.8c-0.4,0.2-0.8,0.4-1.3,0.4c-0.6,0.1-1.3,0.2-2.3,0.3c-0.8,0.1-1.5,0.2-2.3,0.4
	c-0.7,0.2-1.3,0.5-1.9,0.8c-0.6,0.4-1,0.9-1.3,1.5c-0.4,0.7-0.5,1.5-0.5,2.3c0,0.9,0.2,1.9,0.7,2.7c0.5,0.7,1.1,1.3,1.9,1.6
	c0.9,0.4,1.8,0.6,2.8,0.5C128.8,28.3,129.5,28.2,130.2,28L130.2,28z M127.6,24.8c-0.4-0.3-0.7-0.8-0.7-1.4c0-0.4,0.1-0.8,0.3-1.1
	c0.2-0.3,0.6-0.5,0.9-0.7c0.4-0.2,0.9-0.3,1.4-0.4l0.8-0.1c0.3,0,0.6-0.1,0.9-0.2c0.3-0.1,0.5-0.1,0.8-0.2c0.2-0.1,0.4-0.1,0.6-0.2
	v1.7c0,0.5-0.1,1.1-0.4,1.5c-0.3,0.5-0.7,0.8-1.2,1.1c-0.5,0.3-1.1,0.4-1.7,0.4C128.8,25.3,128.2,25.1,127.6,24.8L127.6,24.8z
	 M139.8,11.8l4.6,8.1l-4.8,8.1h4.6l3.1-5.6l3.2,5.6h4.6l-4.8-8.1l4.7-8.1h-4.6l-3,5.7l-3-5.7H139.8z"/>
</svg>
