<?xml version="1.0" encoding="utf-8"?>
<!-- Generator: Adobe Illustrator 25.4.1, SVG Export Plug-In . SVG Version: 6.00 Build 0)  -->
<svg version="1.1" id="logo-7" xmlns="http://www.w3.org/2000/svg" xmlns:xlink="http://www.w3.org/1999/xlink" x="0px" y="0px"
	 viewBox="0 0 118.4 27.3" style="enable-background:new 0 0 118.4 27.3;" xml:space="preserve">
<style type="text/css">
	.st0{fill:#FFFFFF;}
</style>
<path class="st0" d="M32.4,6.3h3v12.1h-3V6.3z M36.6,13.9c0-3,1.8-4.8,4.7-4.8s4.7,1.8,4.7,4.8s-1.8,4.8-4.7,4.8
	C38.4,18.7,36.6,16.9,36.6,13.9z M42.9,13.9c0-1.7-0.7-2.6-1.7-2.6c-1,0-1.7,1-1.7,2.6c0,1.6,0.6,2.6,1.7,2.6
	C42.3,16.5,42.9,15.5,42.9,13.9L42.9,13.9z M47.1,19H50c0.1,0.3,0.4,0.6,0.7,0.7c0.3,0.2,0.6,0.2,1,0.2c1.1,0,1.7-0.6,1.7-1.5v-1.7
	h-0.1c-0.2,0.5-0.6,0.9-1.1,1.2c-0.5,0.3-1,0.4-1.6,0.4c-2.2,0-3.6-1.7-3.6-4.5s1.4-4.7,3.7-4.7c0.6,0,1.2,0.1,1.7,0.4
	c0.5,0.3,0.9,0.8,1.1,1.3l0,0V9.2h3v9.1c0,2.2-1.9,3.5-4.8,3.5C48.9,21.9,47.3,20.7,47.1,19L47.1,19z M53.3,13.9
	c0-1.5-0.7-2.4-1.7-2.4s-1.7,0.9-1.7,2.4c0,1.5,0.6,2.3,1.7,2.3S53.3,15.3,53.3,13.9L53.3,13.9z M57.5,13.9c0-3,1.8-4.8,4.7-4.8
	c2.8,0,4.7,1.8,4.7,4.8s-1.8,4.8-4.7,4.8S57.5,16.9,57.5,13.9L57.5,13.9z M63.8,13.9c0-1.7-0.7-2.6-1.7-2.6c-1,0-1.6,1-1.6,2.6
	c0,1.6,0.6,2.6,1.7,2.6C63.2,16.5,63.8,15.5,63.8,13.9L63.8,13.9z M68,7.1c0-0.3,0.1-0.6,0.2-0.9c0.2-0.3,0.4-0.5,0.7-0.6
	s0.6-0.2,0.9-0.1c0.3,0.1,0.6,0.2,0.8,0.4c0.2,0.2,0.4,0.5,0.4,0.8c0.1,0.3,0,0.6-0.1,0.9c-0.1,0.3-0.3,0.5-0.5,0.7
	c-0.2,0.2-0.5,0.3-0.8,0.3c-0.2,0-0.4,0-0.6-0.1c-0.2-0.1-0.4-0.2-0.5-0.3c-0.1-0.1-0.3-0.3-0.3-0.5C68,7.5,68,7.3,68,7.1L68,7.1z
	 M68,9.3h3v9.2h-3V9.3z M81.9,13.9c0,3-1.3,4.7-3.6,4.7c-0.6,0-1.2-0.1-1.7-0.4c-0.5-0.3-0.9-0.8-1.1-1.3h-0.1v4.5h-3V9.2h3v1.6h0.1
	c0.2-0.5,0.6-1,1.1-1.3s1.1-0.5,1.7-0.4C80.5,9.2,81.9,10.9,81.9,13.9L81.9,13.9z M78.9,13.9c0-1.5-0.7-2.4-1.7-2.4
	s-1.7,0.9-1.7,2.4c0,1.4,0.7,2.4,1.7,2.4S78.9,15.3,78.9,13.9L78.9,13.9z M87,9.1c2.5,0,4,1.2,4.1,3.1h-2.7c0-0.7-0.5-1.1-1.4-1.1
	c-0.8,0-1.2,0.3-1.2,0.8c0,0.5,0.3,0.6,1,0.8l1.9,0.4c1.8,0.4,2.6,1.1,2.6,2.5c0,1.9-1.7,3.1-4.3,3.1s-4.2-1.2-4.3-3.1h2.9
	c0.1,0.7,0.6,1.1,1.5,1.1c0.9,0,1.3-0.3,1.3-0.8c0-0.5-0.3-0.6-1-0.7l-1.7-0.4c-1.8-0.4-2.7-1.3-2.7-2.7C82.9,10.2,84.5,9.1,87,9.1
	L87,9.1z M101.3,18.4h-2.9v-1.7h-0.1c-0.2,0.6-0.5,1.1-1,1.4c-0.5,0.3-1.1,0.5-1.7,0.5c-0.5,0-0.9,0-1.3-0.2
	c-0.4-0.2-0.8-0.4-1.1-0.7c-0.3-0.3-0.6-0.7-0.7-1.1c-0.2-0.4-0.2-0.9-0.2-1.3V9.2h3v5.2c0,1.1,0.6,1.7,1.5,1.7c0.2,0,0.4,0,0.6-0.1
	c0.2-0.1,0.4-0.2,0.5-0.4c0.1-0.2,0.3-0.4,0.3-0.6c0.1-0.2,0.1-0.4,0.1-0.6V9.2h3L101.3,18.4z M102.8,9.2h2.9V11h0.1
	c0.2-0.6,0.5-1.1,1-1.4s1-0.5,1.6-0.5c0.6,0,1.2,0.1,1.7,0.5c0.5,0.4,0.8,0.9,0.9,1.5h0.1c0.2-0.6,0.6-1.1,1.1-1.5
	c0.5-0.4,1.1-0.5,1.8-0.5c0.4,0,0.8,0.1,1.2,0.2c0.4,0.2,0.7,0.4,1,0.7c0.3,0.3,0.5,0.6,0.6,1c0.1,0.4,0.2,0.8,0.2,1.2v6.3h-3V13
	c0-1-0.4-1.5-1.3-1.5c-0.2,0-0.4,0-0.5,0.1c-0.2,0.1-0.3,0.2-0.4,0.3s-0.2,0.3-0.3,0.5c-0.1,0.2-0.1,0.4,0,0.6v5.4h-2.8V13
	c0-0.9-0.5-1.4-1.3-1.4c-0.2,0-0.4,0-0.5,0.1c-0.2,0.1-0.3,0.2-0.5,0.3c-0.1,0.1-0.2,0.3-0.3,0.5c-0.1,0.2-0.1,0.4-0.1,0.6v5.4h-3
	L102.8,9.2z"/>
<path class="st0" d="M27,8.3c-0.5-1.2-1.2-2.2-2-3.2c-1.2-1.5-2.7-2.7-4.4-3.5c-1.7-0.9-3.6-1.3-5.5-1.4s-3.8,0.2-5.6,1
	C7.8,1.8,6.2,2.9,4.8,4.3c-1.3,1.4-2.4,3-3,4.8c-0.6,1.8-0.9,3.7-0.8,5.6c0.1,1.9,0.7,3.8,1.6,5.4c0.9,1.7,2.2,3.1,3.7,4.3
	c1,0.8,2.1,1.4,3.2,1.8c1.6,0.7,3.3,1,5.1,1c3.6,0,7-1.4,9.6-4c2.5-2.5,4-6,4-9.6C28.2,11.9,27.8,10,27,8.3L27,8.3z M14.6,2.9
	c1.6,0,3.1,0.3,4.5,1l0,0c-0.3,0.1-0.7,0.3-1.1,0.3c-1.2,0.2-2.4,0.7-3.2,1.6c-0.9,0.9-1.4,2-1.6,3.2c-0.1,0.7-0.4,1.3-0.9,1.8
	c-0.5,0.5-1.1,0.8-1.8,0.8c-1.2,0.2-2.4,0.7-3.2,1.6c-0.9,0.9-1.4,2-1.6,3.2c-0.1,0.7-0.3,1.3-0.8,1.7l0,0c-0.8-1.6-1.1-3.5-1-5.3
	s0.7-3.6,1.7-5.1c1-1.5,2.3-2.8,3.9-3.7C11,3.3,12.8,2.9,14.6,2.9L14.6,2.9z M6.4,20.7c0.1-0.1,0.2-0.2,0.4-0.3
	c0.9-0.9,1.5-2,1.6-3.2c0.1-0.7,0.4-1.3,0.9-1.8c0.5-0.5,1.1-0.8,1.8-0.9c1.2-0.2,2.4-0.7,3.2-1.6c0.9-0.9,1.4-2,1.6-3.2
	c0-0.7,0.4-1.4,0.9-1.9c0.5-0.5,1.1-0.8,1.8-0.8c1.1-0.2,2.2-0.7,3-1.4c0.9,0.8,1.7,1.7,2.4,2.8c0,0.1-0.1,0.1-0.1,0.1
	c-0.5,0.5-1.1,0.8-1.8,0.9c-1.2,0.2-2.4,0.7-3.2,1.6c-0.9,0.9-1.4,2-1.6,3.2c-0.1,0.7-0.4,1.3-0.9,1.8c-0.5,0.5-1.1,0.8-1.8,0.9
	c-1.2,0.2-2.4,0.7-3.2,1.6c-0.9,0.9-1.5,2-1.6,3.2c-0.1,0.5-0.2,1-0.5,1.4C8,22.4,7.1,21.6,6.4,20.7L6.4,20.7z M14.6,24.6
	c-1,0-2-0.1-3-0.4c0.3-0.6,0.6-1.3,0.6-2c0.1-0.7,0.4-1.3,0.9-1.8c0.5-0.5,1.1-0.8,1.8-0.9c1.2-0.2,2.4-0.7,3.2-1.6
	c0.9-0.9,1.4-2,1.6-3.2c0.1-0.7,0.4-1.3,0.9-1.8c0.5-0.5,1.1-0.8,1.8-0.9c0.9-0.1,1.8-0.5,2.6-1c0.4,1.6,0.5,3.3,0.1,4.9
	c-0.3,1.6-1,3.1-2,4.5c-1,1.3-2.3,2.4-3.8,3.1C17.9,24.1,16.3,24.5,14.6,24.6L14.6,24.6z"/>
</svg>
